<svg width="128" height="128" viewBox="0 0 128 128" fill="none" xmlns="http://www.w3.org/2000/svg">
<path d="M64 128C62.0124 128 60.1573 127.53 58.4348 126.706L40.8116 117.417C38.1615 116.123 39.4865 115.653 40.2816 115.418C43.8592 114.359 44.5217 114.124 48.2319 112.243C48.6294 112.007 49.1594 112.125 49.5569 112.36L63.0725 119.533C63.6025 119.768 64.265 119.768 64.6625 119.533L117.532 92.3693C118.062 92.1341 118.327 91.6638 118.327 91.0758V36.8654C118.327 36.2774 118.062 35.8071 117.532 35.5719L64.6625 8.52549C64.1325 8.29031 63.47 8.29031 63.0725 8.52549L10.2029 35.5719C9.67288 35.8071 9.40787 36.395 9.40787 36.8654V91.0758C9.40787 91.5462 9.67288 92.1341 10.2029 92.3693L24.646 99.7777C32.4638 103.305 37.3665 99.1897 37.3665 95.0739V41.5691C37.3665 40.8636 38.029 40.158 38.9565 40.158H45.7143C46.5093 40.158 47.3043 40.746 47.3043 41.5691V95.0739C47.3043 104.364 41.6066 109.773 31.6687 109.773C28.6211 109.773 26.236 109.773 19.4783 106.833L5.56522 99.7777C2.12008 98.0138 0 94.7212 0 91.1934V36.983C0 33.4552 2.12008 30.1626 5.56522 28.3987L58.4348 1.23473C61.7474 -0.411575 66.2526 -0.411575 69.5652 1.23473L122.435 28.3987C125.88 30.1626 128 33.4552 128 36.983V91.1934C128 94.7212 125.88 98.0138 122.435 99.7777L69.5652 126.942C67.8426 127.647 65.8551 128 64 128ZM80.2981 90.723C57.1097 90.723 52.3395 81.3156 52.3395 73.3192C52.3395 72.6137 53.0021 71.9081 53.9296 71.9081H60.8199C61.6149 71.9081 62.2774 72.3785 62.2774 73.0841C63.3375 79.3165 66.3851 82.3739 80.4306 82.3739C91.5611 82.3739 96.3313 80.1396 96.3313 74.848C96.3313 71.7905 95.0062 69.5563 77.648 68.0276C63.205 66.734 54.1946 63.9118 54.1946 53.6812C54.1946 44.1562 63.205 38.5117 78.3106 38.5117C95.2712 38.5117 103.619 43.6858 104.679 54.9747C104.679 55.3275 104.547 55.6803 104.282 56.0331C104.017 56.2683 103.619 56.5034 103.222 56.5034H96.3313C95.6687 56.5034 95.0062 56.0331 94.8737 55.4451C93.2836 48.9775 89.176 46.8608 78.3106 46.8608C66.1201 46.8608 64.6625 50.6238 64.6625 53.446C64.6625 56.8562 66.3851 57.9146 82.8157 59.796C99.1139 61.6775 106.799 64.3822 106.799 74.4952C106.667 84.8434 97.1263 90.723 80.2981 90.723Z" fill="#539E43"/>
</svg>
